<?xml version="1.0" encoding="utf-8"?>
<!-- Generator: Adobe Illustrator 22.0.0, SVG Export Plug-In . SVG Version: 6.00 Build 0)  -->
<svg version="1.1" id="aircraft" xmlns="http://www.w3.org/2000/svg" xmlns:xlink="http://www.w3.org/1999/xlink" x="0px" y="0px"
	 width="109.2px" height="104px" viewBox="0 0 109.2 104" enable-background="new 0 0 109.2 104" xml:space="preserve">
<g id="background">
		<path fill="#FFAA00" stroke="#B4AA00" stroke-miterlimit="10" enable-background="new" d="
		M97.9,63.3L76.8,50.6V38.8h-5.6v8.6l-16.2-9.8V4.8C54.9,2,52.5,0,50.1,0c-2.8,0-4.8,2.4-4.8,4.8v32.9l-16.2,9.8V39h-5.6v11.8
		L2,63.3c-2,1.2-2.4,3.6-1.6,5.2c0.8,2,0.4,2.8,5.2,2.4L44.9,61v21.5l-11,11v6.4l16.2-4.8l16.2,4.8v-6.4l-11-11V61.2l39.3,9.8
		c2.4,0.4,4.4-0.4,5.2-2.4C100.3,66.9,99.9,64.5,97.9,63.3z"/>
</g>
<text id="label" fill="#FFFFAA" font-size="12px">LABEL</text>
</svg>
